HIERARCHY
ROOT Hips
{
  OFFSET -210.754 77.5408 1208.63
  CHANNELS 6 Xposition Yposition Zposition Zrotation Xrotation Yrotation
  JOINT Spine
  {
    OFFSET 2.9588e-05 8 2.95205e-05
    CHANNELS 6 Xposition Yposition Zposition Zrotation Xrotation Yrotation
    JOINT Spine1
    {
      OFFSET -0.00170992 7.99999 0.00154187
      CHANNELS 6 Xposition Yposition Zposition Zrotation Xrotation Yrotation
      JOINT Spine2
      {
        OFFSET -3.51761e-05 8 -0.000223374
        CHANNELS 6 Xposition Yposition Zposition Zrotation Xrotation Yrotation
        JOINT Spine3
        {
          OFFSET 0 8 0
          CHANNELS 6 Xposition Yposition Zposition Zrotation Xrotation Yrotation
          JOINT Neck
          {
            OFFSET 0.000130324 17 0.000113636
            CHANNELS 6 Xposition Yposition Zposition Zrotation Xrotation Yrotation
            JOINT Head
            {
              OFFSET 4.09497e-05 10.8 6.89911e-05
              CHANNELS 6 Xposition Yposition Zposition Zrotation Xrotation Yrotation
              End Site
              {
                OFFSET 0 20.25 0
              }
            }
          }
          JOINT LeftShoulder
          {
            OFFSET 5.00013 17 0.000157144
            CHANNELS 6 Xposition Yposition Zposition Zrotation Xrotation Yrotation
            JOINT LeftShoulder2
            {
              OFFSET 6.45 0 0
              CHANNELS 6 Xposition Yposition Zposition Zrotation Xrotation Yrotation
              JOINT LeftArm
              {
                OFFSET 6.45 0.00010296 -2.8734e-05
                CHANNELS 6 Xposition Yposition Zposition Zrotation Xrotation Yrotation
                JOINT LeftForeArm
                {
                  OFFSET 4.08457e-05 -32.4 -1.99996
                  CHANNELS 6 Xposition Yposition Zposition Zrotation Xrotation Yrotation
                  JOINT LeftHand
                  {
                    OFFSET -0.00055439 -25.6497 1.99946
                    CHANNELS 6 Xposition Yposition Zposition Zrotation Xrotation Yrotation
                    JOINT LeftHandThumb1
                    {
                      OFFSET -0.499905 -1.49998 2.65001
                      CHANNELS 6 Xposition Yposition Zposition Zrotation Xrotation Yrotation
                      JOINT LeftHandThumb2
                      {
                        OFFSET -3.6001e-05 -3.79921 3.70245
                        CHANNELS 6 Xposition Yposition Zposition Zrotation Xrotation Yrotation
                        JOINT LeftHandThumb3
                        {
                          OFFSET -0.00315364 -2.99728 2.69895
                          CHANNELS 6 Xposition Yposition Zposition Zrotation Xrotation Yrotation
                          End Site
                          {
                            OFFSET 0.00072332 -2.30249 1.79861
                          }
                        }
                      }
                    }
                    JOINT LeftHandIndex
                    {
                      OFFSET 0.000133786 -1.90008 1.59996
                      CHANNELS 6 Xposition Yposition Zposition Zrotation Xrotation Yrotation
                      JOINT LeftHandIndex1
                      {
                        OFFSET 0.00113245 -8.29975 1.89898
                        CHANNELS 6 Xposition Yposition Zposition Zrotation Xrotation Yrotation
                        JOINT LeftHandIndex2
                        {
                          OFFSET -0.000646138 -4.5002 0.000269702
                          CHANNELS 6 Xposition Yposition Zposition Zrotation Xrotation Yrotation
                          JOINT LeftHandIndex3
                          {
                            OFFSET 0.000513095 -3.40122 -0.000388325
                            CHANNELS 6 Xposition Yposition Zposition Zrotation Xrotation Yrotation
                            End Site
                            {
                              OFFSET 0.000307894 -2.59908 -0.000422224
                            }
                          }
                        }
                      }
                    }
                    JOINT LeftHandMiddle
                    {
                      OFFSET -0.243975 -2.20191 0.396689
                      CHANNELS 6 Xposition Yposition Zposition Zrotation Xrotation Yrotation
                      JOINT LeftHandMiddle1
                      {
                        OFFSET -0.000316844 -8.2998 1.0002
                        CHANNELS 6 Xposition Yposition Zposition Zrotation Xrotation Yrotation
                        JOINT LeftHandMiddle2
                        {
                          OFFSET 0.000233882 -4.64989 -0.000112416
                          CHANNELS 6 Xposition Yposition Zposition Zrotation Xrotation Yrotation
                          JOINT LeftHandMiddle3
                          {
                            OFFSET 0.00107022 -3.30083 -0.00093398
                            CHANNELS 6 Xposition Yposition Zposition Zrotation Xrotation Yrotation
                            End Site
                            {
                              OFFSET -0.00151837 -2.70089 0.000577219
                            }
                          }
                        }
                      }
                    }
                    JOINT LeftHandRing
                    {
                      OFFSET -0.501802 -2.14947 -0.799032
                      CHANNELS 6 Xposition Yposition Zposition Zrotation Xrotation Yrotation
                      JOINT LeftHandRing1
                      {
                        OFFSET 0.00700555 -7.75214 -0.203777
                        CHANNELS 6 Xposition Yposition Zposition Zrotation Xrotation Yrotation
                        JOINT LeftHandRing2
                        {
                          OFFSET 0.00279555 -3.80075 -0.00131634
                          CHANNELS 6 Xposition Yposition Zposition Zrotation Xrotation Yrotation
                          JOINT LeftHandRing3
                          {
                            OFFSET -0.00066542 -3.40112 0.000515998
                            CHANNELS 6 Xposition Yposition Zposition Zrotation Xrotation Yrotation
                            End Site
                            {
                              OFFSET -0.000168664 -2.59944 0.000870788
                            }
                          }
                        }
                      }
                    }
                    JOINT LeftHandPinky
                    {
                      OFFSET -0.74304 -1.7504 -1.8548
                      CHANNELS 6 Xposition Yposition Zposition Zrotation Xrotation Yrotation
                      JOINT LeftHandPinky1
                      {
                        OFFSET 0.00181353 -7.15079 -1.00119
                        CHANNELS 6 Xposition Yposition Zposition Zrotation Xrotation Yrotation
                        JOINT LeftHandPinky2
                        {
                          OFFSET -0.00103333 -2.99863 -0.000227552
                          CHANNELS 6 Xposition Yposition Zposition Zrotation Xrotation Yrotation
                          JOINT LeftHandPinky3
                          {
                            OFFSET 0.000331956 -2.3502 -0.000398401
                            CHANNELS 6 Xposition Yposition Zposition Zrotation Xrotation Yrotation
                            End Site
                            {
                              OFFSET 0.00166821 -2.1003 -0.000745755
                            }
                          }
                        }
                      }
                    }
                  }
                }
              }
            }
          }
          JOINT RightShoulder
          {
            OFFSET -4.99987 17.0001 0.000175934
            CHANNELS 6 Xposition Yposition Zposition Zrotation Xrotation Yrotation
            JOINT RightShoulder2
            {
              OFFSET -6.45 0 0
              CHANNELS 6 Xposition Yposition Zposition Zrotation Xrotation Yrotation
              JOINT RightArm
              {
                OFFSET -6.45 -0.000496362 -0.000131148
                CHANNELS 6 Xposition Yposition Zposition Zrotation Xrotation Yrotation
                JOINT RightForeArm
                {
                  OFFSET -0.00186475 -32.3988 -2.00148
                  CHANNELS 6 Xposition Yposition Zposition Zrotation Xrotation Yrotation
                  JOINT RightHand
                  {
                    OFFSET 0.000106747 -25.6504 1.99989
                    CHANNELS 6 Xposition Yposition Zposition Zrotation Xrotation Yrotation
                    JOINT RightHandThumb1
                    {
                      OFFSET 0.500549 -1.50067 2.65003
                      CHANNELS 6 Xposition Yposition Zposition Zrotation Xrotation Yrotation
                      JOINT RightHandThumb2
                      {
                        OFFSET -4.89119e-05 -3.79998 3.70001
                        CHANNELS 6 Xposition Yposition Zposition Zrotation Xrotation Yrotation
                        JOINT RightHandThumb3
                        {
                          OFFSET -6.27559e-05 -2.99991 2.70001
                          CHANNELS 6 Xposition Yposition Zposition Zrotation Xrotation Yrotation
                          End Site
                          {
                            OFFSET 8.13577e-05 -2.30001 1.8
                          }
                        }
                      }
                    }
                    JOINT RightHandIndex
                    {
                      OFFSET -0.00311049 -1.90211 1.60356
                      CHANNELS 6 Xposition Yposition Zposition Zrotation Xrotation Yrotation
                      JOINT RightHandIndex1
                      {
                        OFFSET 0.00170043 -8.29983 1.90055
                        CHANNELS 6 Xposition Yposition Zposition Zrotation Xrotation Yrotation
                        JOINT RightHandIndex2
                        {
                          OFFSET 0.0015142 -4.49946 -0.00203689
                          CHANNELS 6 Xposition Yposition Zposition Zrotation Xrotation Yrotation
                          JOINT RightHandIndex3
                          {
                            OFFSET -0.0016636 -3.40097 -0.000508929
                            CHANNELS 6 Xposition Yposition Zposition Zrotation Xrotation Yrotation
                            End Site
                            {
                              OFFSET -0.00371709 -2.59923 -0.00108278
                            }
                          }
                        }
                      }
                    }
                    JOINT RightHandMiddle
                    {
                      OFFSET 0.249027 -2.20142 0.402208
                      CHANNELS 6 Xposition Yposition Zposition Zrotation Xrotation Yrotation
                      JOINT RightHandMiddle1
                      {
                        OFFSET 0.00125222 -8.29739 0.993876
                        CHANNELS 6 Xposition Yposition Zposition Zrotation Xrotation Yrotation
                        JOINT RightHandMiddle2
                        {
                          OFFSET -0.0047615 -4.64803 -0.000869313
                          CHANNELS 6 Xposition Yposition Zposition Zrotation Xrotation Yrotation
                          JOINT RightHandMiddle3
                          {
                            OFFSET -0.000370511 -3.29938 0.00162925
                            CHANNELS 6 Xposition Yposition Zposition Zrotation Xrotation Yrotation
                            End Site
                            {
                              OFFSET -6.55778e-05 -2.70017 -0.000361971
                            }
                          }
                        }
                      }
                    }
                    JOINT RightHandRing
                    {
                      OFFSET 0.499685 -2.15026 -0.799161
                      CHANNELS 6 Xposition Yposition Zposition Zrotation Xrotation Yrotation
                      JOINT RightHandRing1
                      {
                        OFFSET -0.00110949 -7.75039 -0.197474
                        CHANNELS 6 Xposition Yposition Zposition Zrotation Xrotation Yrotation
                        JOINT RightHandRing2
                        {
                          OFFSET 0.00251762 -3.79912 -0.00471772
                          CHANNELS 6 Xposition Yposition Zposition Zrotation Xrotation Yrotation
                          JOINT RightHandRing3
                          {
                            OFFSET -0.000493876 -3.3998 0.000254159
                            CHANNELS 6 Xposition Yposition Zposition Zrotation Xrotation Yrotation
                            End Site
                            {
                              OFFSET 0.00172235 -2.60305 -0.00526395
                            }
                          }
                        }
                      }
                    }
                    JOINT RightHandPinky
                    {
                      OFFSET 0.749768 -1.75218 -1.84401
                      CHANNELS 6 Xposition Yposition Zposition Zrotation Xrotation Yrotation
                      JOINT RightHandPinky1
                      {
                        OFFSET 0.00546041 -7.14927 -0.998825
                        CHANNELS 6 Xposition Yposition Zposition Zrotation Xrotation Yrotation
                        JOINT RightHandPinky2
                        {
                          OFFSET -0.000333618 -2.99963 0.000248486
                          CHANNELS 6 Xposition Yposition Zposition Zrotation Xrotation Yrotation
                          JOINT RightHandPinky3
                          {
                            OFFSET 0.00474071 -2.35606 -0.012276
                            CHANNELS 6 Xposition Yposition Zposition Zrotation Xrotation Yrotation
                            End Site
                            {
                              OFFSET -0.000144119 -2.10002 5.88967e-05
                            }
                          }
                        }
                      }
                    }
                  }
                }
              }
            }
          }
        }
      }
    }
  }
  JOINT LeftUpLeg
  {
    OFFSET 8.00001 0 4.30804e-05
    CHANNELS 6 Xposition Yposition Zposition Zrotation Xrotation Yrotation
    JOINT LeftLeg
    {
      OFFSET 7.16907e-05 -45 -0.999959
      CHANNELS 6 Xposition Yposition Zposition Zrotation Xrotation Yrotation
      JOINT LeftFoot
      {
        OFFSET -0.000294054 -41 -2.00017
        CHANNELS 6 Xposition Yposition Zposition Zrotation Xrotation Yrotation
        JOINT LeftToeBase
        {
          OFFSET -6.33651e-05 -7.5 12.4999
          CHANNELS 6 Xposition Yposition Zposition Zrotation Xrotation Yrotation
          JOINT LeftFootToe
          {
            OFFSET 0 0 4
            CHANNELS 6 Xposition Yposition Zposition Zrotation Xrotation Yrotation
            End Site
            {
              OFFSET 0 0 0
            }
          }
        }
      }
    }
  }
  JOINT RightUpLeg
  {
    OFFSET -8.00001 0 -4.30804e-05
    CHANNELS 6 Xposition Yposition Zposition Zrotation Xrotation Yrotation
    JOINT RightLeg
    {
      OFFSET 0.000664607 -45.0003 -0.999107
      CHANNELS 6 Xposition Yposition Zposition Zrotation Xrotation Yrotation
      JOINT RightFoot
      {
        OFFSET 0.00251602 -40.9992 -1.99756
        CHANNELS 6 Xposition Yposition Zposition Zrotation Xrotation Yrotation
        JOINT RightToeBase
        {
          OFFSET 0 -7.50001 12.5001
          CHANNELS 6 Xposition Yposition Zposition Zrotation Xrotation Yrotation
          JOINT RightFootToe
          {
            OFFSET 0 0 4
            CHANNELS 6 Xposition Yposition Zposition Zrotation Xrotation Yrotation
            End Site
            {
              OFFSET 0 0 0
            }
          }
        }
      }
    }
  }
}
MOTION
Frames:	3
Frame Time:	0.0111111
-228.671 71.4603 1222.55 1.37138 7.1507 -174.386 0 8 2.27374e-13 2.75544 8.31058 -0.601411 1.13687e-13 8 0 1.34167 3.50438 -0.764767 5.68434e-14 8 -2.27374e-13 0.664883 1.75491 -0.372039 1.13687e-13 8 0 0.664507 1.75393 -0.371849 -1.13687e-13 17 2.27374e-13 5.65694 6.71518 -8.7232 1.13687e-13 10.8 -2.27374e-13 9.52596 4.19981 -19.7979 5 17 0 -0.984276 6.68976 -5.64307 6.45 -8.52651e-14 2.27374e-13 -0.31458 -1.09738 0.362258 6.45 2.84217e-14 4.54747e-13 48.8471 0.498983 15.3404 0 -32.4 -2 -22.054 -71.9039 -45.9617 1.42109e-13 -25.65 2 7.6061 -49.2272 31.4671 -0.5 -1.5 2.65 -22.5859 11.2815 -123.61 1.13687e-13 -3.8 3.7 -0.0856607 49.1147 -0.0591598 -1.13687e-13 -3 2.7 -0.00761948 28.9054 0.0165077 -1.13687e-13 -1.9 1.6 1.12465e-05 2.22792e-06 5.9416e-06 0 -8.3 1.9 -71.711 5.00235 5.34152 0 -4.5 2.84217e-14 -54.0642 0.0112243 0.015442 0 -3.4 -1.7053e-13 -37.3667 0.0347334 0.03361 -0.25 -2.2 0.4 1.12465e-05 2.22792e-06 5.9416e-06 5.68434e-14 -8.3 1 -42.6767 -4.78763 -0.669747 -1.13687e-13 -4.65 -5.68434e-14 -70.9281 0.00531859 -0.00688434 -1.13687e-13 -3.3 0 -90.0002 -9.71851e-06 5.01643e-06 -0.5 -2.15 -0.8 1.12465e-05 2.22792e-06 5.9416e-06 -1.13687e-13 -7.75 -0.2 -71.0275 11.1169 13.2162 -2.27374e-13 -3.8 2.84217e-14 -38.7042 0.00933237 0.000350689 -2.27374e-13 -3.4 2.84217e-14 -90.0039 0.0174344 -2.68999 -0.75 -1.75 -1.85 1.12465e-05 2.22792e-06 5.9416e-06 -2.84217e-14 -7.15 -1 -68.0875 11.8856 14.2262 0 -3 2.84217e-14 -25.2258 -0.00478332 -0.00792713 0 -2.35 -2.84217e-14 -19.1052 -0.000412861 -0.00452283 -5 17 0 10.4595 4.89671 -2.54561 -6.45 -1.13687e-13 0 -1.83961 0.272576 -0.840498 -6.45 -5.68434e-14 0 -32.6075 -9.42964 -2.64593 0 -32.4 -2 -20.8905 -33.1279 -9.03551 -2.84217e-14 -25.65 2 -2.42748 -25.7564 45.1997 0.5 -1.5 2.65 38.2429 26.4648 -134.755 4.54747e-13 -3.8 3.7 0.384029 46.9928 0.0480609 0 -3 2.7 -0.0366666 48.6378 0.0792362 0 -1.9 1.6 2.41281e-06 -1.49756e-06 -1.04751e-06 0 -8.3 1.9 2.84877 -4.97465 0.0696325 1.13687e-13 -4.5 -2.84217e-13 0.0488981 0.0821453 -0.00544827 5.68434e-14 -3.4 -2.84217e-13 0.248706 -0.0113567 -0.00430532 0.25 -2.2 0.4 2.41281e-06 -1.49756e-06 -1.04751e-06 -5.68434e-14 -8.3 1 2.66246 -2.21174 -0.00924294 -1.13687e-13 -4.65 -1.7053e-13 1.22151 5.03219 0.89133 5.68434e-14 -3.3 0 16.418 -0.181413 0.0896167 0.5 -2.15 -0.8 2.41281e-06 -1.49756e-06 -1.04751e-06 5.68434e-14 -7.75 -0.2 2.94389 2.63976 -0.146111 1.13687e-13 -3.8 5.68434e-14 3.97594 12.5653 4.08218 -1.13687e-13 -3.4 -1.13687e-13 27.4455 -0.0839031 0.196901 0.75 -1.75 -1.85 2.41281e-06 -1.49756e-06 -1.04751e-06 0 -7.15 -1 3.23253 4.47574 -0.197332 5.68434e-14 -3 1.13687e-13 1.16946 2.92518 0.25305 -5.68434e-14 -2.35 1.13687e-13 7.57739 -0.138221 0.0745916 8 -2.84217e-14 -2.27374e-13 -44.2848 -30.9754 -41.3092 0 -45 -1 31.7749 36.3272 -26.3635 1.13687e-13 -41 -2 -13.2016 11.0959 -7.06377 1.13687e-13 -7.5 12.5 -2.35318e-08 1.82245e-08 1.45342e-10 -2.27374e-13 7.10543e-15 4 16.1281 -3.46361 95.155 -8 0 0 -42.2145 -28.2591 -10.3815 -4.26326e-14 -45 -1 89.1535 20.809 -59.516 -5.68434e-14 -41 -2 -49.1225 10.2886 27.3741 0 -7.5 12.5 -9.96057e-07 -7.00873 3.98039e-06 0 0 4 -25.1363 -1.62037 71.4534 
-228.605 71.4819 1222.6 1.34141 7.30043 -174.401 -5.68434e-14 8 2.27374e-13 2.81651 8.25402 -0.621831 1.13687e-13 8 2.27374e-13 1.30294 3.44314 -0.766674 5.68434e-14 8 -2.27374e-13 0.645613 1.7242 -0.373457 1.13687e-13 8 0 0.645892 1.71901 -0.378 -1.13687e-13 17 2.27374e-13 5.7474 6.77083 -8.48533 1.42109e-13 10.8 0 9.42703 4.11593 -19.2002 5 17 2.27374e-13 -0.914165 6.7867 -5.59425 6.45 -1.13687e-13 0 -0.322913 -1.10466 0.355878 6.45 5.68434e-14 2.27374e-13 48.7996 0.353421 15.3729 0 -32.4 -2 -20.4404 -71.0485 -44.4059 1.13687e-13 -25.65 2 7.3896 -49.7688 31.5724 -0.5 -1.5 2.65 -22.3203 10.9829 -123.786 1.7053e-13 -3.8 3.7 -0.0855882 49.1606 -0.0592146 5.68434e-14 -3 2.7 -0.0126952 27.6469 0.0281345 -1.13687e-13 -1.9 1.6 1.12465e-05 2.22792e-06 5.9416e-06 0 -8.3 1.9 -71.1922 5.06029 5.31548 0 -4.5 -2.84217e-14 -54.1601 0.0112243 0.015442 0 -3.4 -1.13687e-13 -37.4379 0.0347334 0.03361 -0.25 -2.2 0.4 1.12465e-05 2.22792e-06 5.9416e-06 2.84217e-14 -8.3 1 -42.4728 -4.65669 -0.615266 -2.27374e-13 -4.65 0 -71.0424 0.00531859 -0.00688434 -1.13687e-13 -3.3 0 -90.0002 -9.71851e-06 5.01643e-06 -0.5 -2.15 -0.8 1.12465e-05 2.22792e-06 5.9416e-06 -8.52651e-14 -7.75 -0.2 -70.166 11.3106 13.0726 0 -3.8 -1.42109e-14 -38.9177 0.00933237 -0.00285902 0 -3.4 7.10543e-14 -90.0039 0.0174344 -2.68999 -0.75 -1.75 -1.85 1.12465e-05 2.22792e-06 5.9416e-06 8.52651e-14 -7.15 -1 -67.0526 12.1907 14.0663 0 -3 5.68434e-14 -25.9 -0.0101316 -0.0103839 0 -2.35 -4.26326e-14 -19.5176 -0.0031867 -0.0074215 -5 17 0 10.4858 5.01531 -2.49312 -6.45 -1.13687e-13 0 -1.82976 0.273531 -0.858146 -6.45 -2.84217e-14 2.27374e-13 -32.9059 -10.1446 -1.90714 0 -32.4 -2 -20.0677 -31.217 -8.68272 -1.42109e-14 -25.65 2 -2.05186 -25.1081 46.0192 0.5 -1.5 2.65 36.5654 25.8881 -134.901 2.27374e-13 -3.8 3.7 0.383739 47.2279 0.0482737 0 -3 2.7 -0.0366666 48.6378 0.0792362 0 -1.9 1.6 2.41281e-06 -1.49756e-06 -1.04751e-06 5.68434e-14 -8.3 1.9 2.09299 -5.05837 0.0703733 5.68434e-14 -4.5 -1.98952e-13 0.0311771 0.0515511 -0.00544826 0 -3.4 -1.98952e-13 0.156048 -0.00733217 -0.00430532 0.25 -2.2 0.4 2.41281e-06 -1.49756e-06 -1.04751e-06 0 -8.3 1 1.94446 -2.25602 0.00526802 -1.7053e-13 -4.65 -1.13687e-13 1.05483 4.31936 0.721871 0 -3.3 0 14.1577 -0.110302 0.0890693 0.5 -2.15 -0.8 2.41281e-06 -1.49756e-06 -1.04751e-06 0 -7.75 -0.2 2.07879 2.74961 -0.108693 1.7053e-13 -3.8 -5.68434e-14 3.7873 11.5197 3.43126 0 -3.4 -2.27374e-13 25.1918 -0.0417723 0.154257 0.75 -1.75 -1.85 2.41281e-06 -1.49756e-06 -1.04751e-06 -5.68434e-14 -7.15 -1 2.21625 4.78539 -0.148929 0 -3 1.7053e-13 0.915621 2.28509 0.19351 0 -2.35 0 5.93148 -0.0986591 0.0688346 8 -2.84217e-14 2.27374e-13 -44.1672 -30.8128 -41.3743 0 -45 -1 31.7103 36.2635 -26.1909 0 -41 -2 -13.2852 11.3651 -6.89905 1.13687e-13 -7.5 12.5 -2.35319e-08 1.82245e-08 1.45342e-10 0 7.10543e-15 4 16.0904 -3.65313 95.2012 -8 -2.84217e-14 2.27374e-13 -42.2161 -28.1533 -10.3045 0 -45 -1 89.2324 20.784 -59.5094 5.68434e-14 -41 -2 -49.1968 10.3134 27.4245 0 -7.5 12.5 -1.06989e-06 -5.9516 3.97206e-06 1.13687e-13 0 4 -25.1845 -2.43886 71.0509 
-228.539 71.5036 1222.65 1.31153 7.45017 -174.415 0 8 0 2.87753 8.19746 -0.642245 1.13687e-13 8 0 1.26421 3.38189 -0.768582 -5.68434e-14 8 0 0.626341 1.69349 -0.374876 1.13687e-13 8 0 0.626444 1.68975 -0.377309 -1.13687e-13 17 0 5.83741 6.82642 -8.24742 1.13687e-13 10.8 0 9.33002 4.03089 -18.6027 5 17 2.27374e-13 -0.84422 6.88364 -5.54543 6.45 -8.52651e-14 0 -0.332683 -1.10762 0.347561 6.45 -5.68434e-14 0 48.7523 0.207904 15.4055 0 -32.4 -2 -18.9648 -70.1801 -42.9925 1.13687e-13 -25.65 2 7.17644 -50.3106 31.6833 -0.5 -1.5 2.65 -22.0565 10.6822 -123.959 1.13687e-13 -3.8 3.7 -0.0855156 49.2065 -0.0592695 -1.13687e-13 -3 2.7 -0.0172006 26.3884 0.0395101 -8.52651e-14 -1.9 1.6 1.12465e-05 2.22792e-06 5.9416e-06 0 -8.3 1.9 -70.6733 5.11824 5.28945 2.27374e-13 -4.5 -2.84217e-14 -54.2561 0.0112243 0.015442 0 -3.4 -1.7053e-13 -37.5091 0.0347334 0.03361 -0.25 -2.2 0.4 1.12465e-05 2.22792e-06 5.9416e-06 -2.84217e-14 -8.3 1 -42.2691 -4.52574 -0.560809 -1.13687e-13 -4.65 -5.68434e-14 -71.1567 0.00531859 -0.00688434 -1.13687e-13 -3.3 0 -90.0002 -9.71851e-06 5.01643e-06 -0.5 -2.15 -0.8 1.12465e-05 2.22792e-06 5.9416e-06 -1.42109e-13 -7.75 -0.2 -69.3036 11.5045 12.9289 0 -3.8 -2.84217e-14 -39.1312 0.00933237 -0.00606873 -2.27374e-13 -3.4 4.26326e-14 -90.0039 0.0174344 -2.68999 -0.75 -1.75 -1.85 1.12465e-05 2.22792e-06 5.9416e-06 2.84217e-14 -7.15 -1 -66.0159 12.4962 13.9063 0 -3 0 -26.5742 -0.0154799 -0.0128406 0 -2.35 -1.13687e-13 -19.93 -0.00596055 -0.0103202 -5 17 0 10.5119 5.13391 -2.44063 -6.45 -1.42109e-13 -2.27374e-13 -1.82203 0.274664 -0.868184 -6.45 5.68434e-14 0 -33.1857 -10.8585 -1.16534 -5.68434e-14 -32.4 -2 -19.2716 -29.3032 -8.35347 -2.84217e-14 -25.65 2 -1.69098 -24.4624 46.835 0.5 -1.5 2.65 34.8846 25.311 -135.039 2.27374e-13 -3.8 3.7 0.383446 47.463 0.0484892 0 -3 2.7 -0.0366666 48.6378 0.0792362 0 -1.9 1.6 2.41281e-06 -1.49756e-06 -1.04751e-06 0 -8.3 1.9 1.33722 -5.14209 0.0711145 1.13687e-13 -4.5 -2.84217e-13 0.0134561 0.020957 -0.00544826 0 -3.4 -1.98952e-13 0.06339 -0.00330769 -0.00430532 0.25 -2.2 0.4 2.41281e-06 -1.49756e-06 -1.04751e-06 -5.68434e-14 -8.3 1 1.22649 -2.3003 0.0197799 -5.68434e-14 -4.65 -5.68434e-14 0.88392 3.60645 0.552841 0 -3.3 0 11.8974 -0.0391921 0.0885221 0.5 -2.15 -0.8 2.41281e-06 -1.49756e-06 -1.04751e-06 -5.68434e-14 -7.75 -0.2 1.21354 2.85945 -0.0712681 1.13687e-13 -3.8 1.13687e-13 3.57441 10.4713 2.78631 0 -3.4 -2.27374e-13 22.9382 0.000358592 0.111614 0.75 -1.75 -1.85 2.41281e-06 -1.49756e-06 -1.04751e-06 0 -7.15 -1 1.19945 5.09504 -0.100487 0 -3 1.7053e-13 0.660451 1.645 0.134048 0 -2.35 0 4.28558 -0.0590973 0.0630776 8 0 -2.27374e-13 -44.0493 -30.6505 -41.4395 1.13687e-13 -45 -1 31.6462 36.1993 -26.0188 -1.13687e-13 -41 -2 -13.3704 11.6344 -6.73417 0 -7.5 12.5 -2.35318e-08 1.82245e-08 1.45345e-10 -2.27374e-13 -7.10543e-15 4 16.048 -3.96218 95.2601 -8 0 2.27374e-13 -42.218 -28.0474 -10.2277 0 -45 -1 89.3112 20.759 -59.5029 5.68434e-14 -41 -2 -49.2713 10.3381 27.4748 0 -7.5 12.5 -1.14344e-06 -4.89446 3.96511e-06 -1.13687e-13 0 4 -25.2415 -3.4152 70.5775 
